<?xml version="1.0" standalone="no"?>
<!DOCTYPE svg PUBLIC "-//W3C//DTD SVG 20010904//EN"
 "http://www.w3.org/TR/2001/REC-SVG-20010904/DTD/svg10.dtd">
<svg version="1.0" xmlns="http://www.w3.org/2000/svg"
 width="714.000000pt" height="714.000000pt" viewBox="0 0 714.000000 714.000000"
 preserveAspectRatio="xMidYMid meet">
<metadata>
Created by potrace 1.14, written by Peter Selinger 2001-2017
</metadata>
<g transform="translate(0.000000,714.000000) scale(0.100000,-0.100000)"
fill="#000000" stroke="none">
<path d="M3346 7132 c-3 -6 -16 -69 -43 -212 -2 -14 -9 -45 -15 -70 -5 -25
-12 -58 -15 -75 -2 -16 -11 -57 -20 -90 -8 -33 -16 -67 -18 -75 -13 -64 -51
-221 -72 -294 -14 -48 -26 -93 -27 -100 -16 -72 -116 -396 -146 -471 -4 -11
-32 -81 -60 -155 -94 -243 -272 -583 -347 -664 -12 -14 -23 -28 -23 -32 0 -23
-183 -220 -276 -298 l-32 -26 -11 47 c-9 40 -33 172 -56 310 -31 185 -35 434
-9 558 5 27 2 25 -34 -23 -22 -29 -68 -96 -103 -150 -35 -53 -66 -99 -69 -102
-8 -7 -150 -239 -150 -244 0 -3 -23 -44 -50 -91 -214 -370 -430 -920 -529
-1345 -42 -182 -82 -392 -100 -535 -34 -260 -36 -297 -36 -705 l0 -395 27
-100 c48 -182 67 -241 112 -357 132 -342 308 -613 548 -843 289 -278 631 -461
1103 -591 16 -5 15 -2 -5 12 -76 56 -207 170 -287 252 -82 82 -233 265 -233
281 0 6 -4 11 -8 11 -4 0 -23 26 -42 58 -18 31 -39 64 -46 72 -44 56 -163 317
-214 470 -38 115 -87 346 -97 461 -13 153 -6 510 12 539 2 3 6 28 10 55 3 28
16 88 27 134 18 71 23 82 32 67 93 -159 254 -333 400 -430 48 -32 95 -59 103
-60 12 -1 25 42 59 184 48 203 58 239 146 510 77 241 143 416 243 645 60 139
237 503 265 545 15 24 120 240 193 400 108 236 233 608 261 778 15 85 20 160
20 264 l1 116 35 -61 c80 -139 180 -396 206 -532 2 -11 6 -30 9 -42 3 -13 7
-33 10 -45 13 -57 27 -159 41 -293 10 -90 10 -425 1 -535 -15 -171 -37 -341
-63 -475 -8 -44 -17 -91 -20 -105 -2 -14 -7 -38 -11 -55 -11 -51 -11 -55 -3
-55 16 0 239 241 307 331 227 304 379 652 429 986 3 21 7 49 10 63 10 57 17
182 18 290 0 114 -12 309 -20 322 -3 4 -7 26 -10 50 -15 117 -86 361 -154 533
-43 109 -159 339 -233 462 -168 280 -379 529 -612 719 -112 92 -319 222 -329
206z"/>
<path d="M5460 4437 c0 -43 -57 -246 -99 -354 -63 -160 -137 -289 -250 -438
-56 -73 -212 -231 -274 -276 -135 -101 -557 -440 -651 -524 -6 -6 -47 -42 -91
-80 -166 -146 -401 -383 -510 -516 -43 -51 -95 -128 -157 -229 -231 -376 -286
-681 -194 -1060 9 -36 56 -150 86 -210 61 -121 148 -247 255 -370 83 -95 303
-300 322 -300 32 0 384 351 563 560 12 14 31 36 43 50 12 14 64 81 115 150
245 327 446 677 592 1035 18 44 37 89 41 100 13 30 69 188 73 205 2 8 13 42
24 75 18 54 48 156 58 195 33 134 53 222 58 254 10 63 19 59 18 -9 0 -11 -3
-76 -6 -145 -6 -117 -10 -164 -21 -250 -2 -19 -7 -57 -10 -85 -4 -27 -9 -63
-12 -80 -3 -16 -6 -39 -8 -50 -1 -11 -5 -36 -8 -55 -4 -19 -9 -47 -12 -62 -9
-50 -16 -82 -31 -148 -9 -36 -17 -74 -19 -85 -26 -135 -155 -522 -229 -690
-15 -33 -37 -82 -49 -110 -23 -54 -151 -307 -184 -366 -51 -89 -161 -261 -213
-336 -61 -86 -84 -123 -75 -123 16 0 245 118 336 173 279 169 544 421 699 662
24 39 47 72 50 75 18 18 106 191 151 298 22 53 44 106 49 117 9 20 48 146 55
175 2 8 8 26 13 40 5 14 10 28 10 33 0 4 3 20 6 35 13 59 17 80 31 157 8 44
18 96 21 115 4 19 8 197 10 395 3 352 1 374 -31 590 -4 30 -6 41 -26 145 -12
69 -66 290 -84 350 -46 153 -85 264 -143 410 -82 208 -246 537 -288 579 -2 2
-4 -7 -4 -22z"/>
</g>
</svg>
